<svg width="230" height="60" viewBox="0 0 230 60" fill="none" xmlns="http://www.w3.org/2000/svg">
<path d="M14.1336 47V22H6.41363V17.2H27.2136V22H19.6136V47H14.1336ZM32.9333 47V17.2H38.1333L49.2933 32.36H46.8133L57.7333 17.2H62.9333V47H57.4533V23.4L59.5733 23.92L48.2533 39H47.6133L36.5733 23.92L38.3733 23.4V47H32.9333Z" fill="white"/>
<path d="M92.88 47V17.2H98.32V47H92.88ZM134.052 47.48C131.919 47.48 129.945 47.0933 128.132 46.32C126.345 45.5467 124.772 44.4667 123.412 43.08C122.079 41.6933 121.039 40.0667 120.292 38.2C119.545 36.3333 119.172 34.2933 119.172 32.08C119.172 29.8667 119.532 27.8267 120.252 25.96C120.999 24.0667 122.039 22.44 123.372 21.08C124.732 19.6933 126.319 18.6267 128.132 17.88C129.945 17.1067 131.919 16.72 134.052 16.72C136.185 16.72 138.092 17.08 139.772 17.8C141.479 18.52 142.919 19.48 144.092 20.68C145.265 21.8533 146.105 23.1467 146.612 24.56L141.732 26.84C141.172 25.3467 140.225 24.12 138.892 23.16C137.559 22.1733 135.945 21.68 134.052 21.68C132.185 21.68 130.532 22.12 129.092 23C127.679 23.88 126.572 25.0933 125.772 26.64C124.999 28.1867 124.612 30 124.612 32.08C124.612 34.16 124.999 35.9867 125.772 37.56C126.572 39.1067 127.679 40.32 129.092 41.2C130.532 42.08 132.185 42.52 134.052 42.52C135.945 42.52 137.559 42.04 138.892 41.08C140.225 40.0933 141.172 38.8533 141.732 37.36L146.612 39.64C146.105 41.0533 145.265 42.36 144.092 43.56C142.919 44.7333 141.479 45.68 139.772 46.4C138.092 47.12 136.185 47.48 134.052 47.48ZM181.708 47.48C179.522 47.48 177.482 47.0933 175.588 46.32C173.695 45.5467 172.042 44.4667 170.628 43.08C169.215 41.6933 168.108 40.0667 167.308 38.2C166.535 36.3067 166.148 34.2667 166.148 32.08C166.148 29.8667 166.535 27.8267 167.308 25.96C168.082 24.0933 169.175 22.4667 170.588 21.08C172.002 19.6933 173.655 18.6267 175.548 17.88C177.442 17.1067 179.495 16.72 181.708 16.72C183.922 16.72 185.975 17.1067 187.868 17.88C189.762 18.6533 191.415 19.7333 192.828 21.12C194.242 22.48 195.335 24.0933 196.108 25.96C196.908 27.8267 197.308 29.8667 197.308 32.08C197.308 34.2667 196.908 36.3067 196.108 38.2C195.308 40.0667 194.202 41.6933 192.788 43.08C191.375 44.4667 189.722 45.5467 187.828 46.32C185.962 47.0933 183.922 47.48 181.708 47.48ZM181.708 42.52C183.175 42.52 184.522 42.2667 185.748 41.76C186.975 41.2267 188.042 40.4933 188.948 39.56C189.882 38.6267 190.588 37.52 191.068 36.24C191.575 34.96 191.828 33.5733 191.828 32.08C191.828 30.5867 191.575 29.2133 191.068 27.96C190.588 26.68 189.882 25.5733 188.948 24.64C188.042 23.68 186.975 22.9467 185.748 22.44C184.522 21.9333 183.175 21.68 181.708 21.68C180.268 21.68 178.935 21.9333 177.708 22.44C176.482 22.9467 175.402 23.68 174.468 24.64C173.562 25.5733 172.855 26.68 172.348 27.96C171.842 29.2133 171.588 30.5867 171.588 32.08C171.588 33.5733 171.842 34.96 172.348 36.24C172.855 37.52 173.562 38.6267 174.468 39.56C175.402 40.4933 176.482 41.2267 177.708 41.76C178.935 42.2667 180.268 42.52 181.708 42.52Z" fill="white"/>
</svg>
